<svg width="171" height="170" viewBox="0 0 171 170" fill="none" xmlns="http://www.w3.org/2000/svg">
<circle cx="85.3335" cy="85" r="85" fill="#456BF2"/>
<path d="M56.5463 66.4693C56.6101 65.9917 57.3899 65.9917 57.4537 66.4693L57.9885 70.4762C58.6792 75.6503 63.2684 79.7296 69.0892 80.3435L73.5969 80.8189C74.1343 80.8757 74.1343 81.5687 73.5969 81.6255L69.0892 82.1009C63.2684 82.7148 58.6792 86.7941 57.9885 91.9681L57.4537 95.975C57.3899 96.4527 56.6101 96.4527 56.5463 95.975L56.0115 91.9681C55.3208 86.7941 50.7316 82.7148 44.9108 82.1009L40.403 81.6255C39.8657 81.5687 39.8657 80.8757 40.403 80.8189L44.9108 80.3435C50.7316 79.7296 55.3208 75.6503 56.0115 70.4762L56.5463 66.4693Z" fill="#FEE903"/>
<path d="M100.658 66.7604C100.761 65.8947 102.017 65.8947 102.12 66.7604L102.982 74.0229C104.094 83.4008 111.488 90.7946 120.866 91.9073L128.128 92.7691C128.994 92.8719 128.994 94.1281 128.128 94.2309L120.866 95.0926C111.488 96.2053 104.094 103.599 102.982 112.977L102.12 120.239C102.017 121.105 100.761 121.105 100.658 120.239L99.7962 112.977C98.6835 103.599 91.2898 96.2053 81.9118 95.0926L74.6493 94.2309C73.7836 94.1281 73.7836 92.8719 74.6493 92.7691L81.9118 91.9073C91.2898 90.7946 98.6835 83.4008 99.7962 74.0229L100.658 66.7604Z" fill="#FEE903"/>
<path d="M82.2732 47.4461C82.3051 47.1476 82.6949 47.1476 82.7268 47.4461L82.9943 49.9504C83.3396 53.1842 85.6342 55.7338 88.5446 56.1175L90.7985 56.4146C91.0672 56.4501 91.0672 56.8833 90.7985 56.9187L88.5446 57.2159C85.6342 57.5996 83.3396 60.1491 82.9943 63.3829L82.7268 65.8872C82.6949 66.1858 82.3051 66.1858 82.2732 65.8872L82.0057 63.3829C81.6604 60.1491 79.3658 57.5996 76.4554 57.2159L74.2015 56.9187C73.9328 56.8833 73.9328 56.4501 74.2015 56.4146L76.4554 56.1175C79.3658 55.7338 81.6604 53.1842 82.0057 49.9504L82.2732 47.4461Z" fill="#FEE903"/>
</svg>
